<svg id="artwork" xmlns="http://www.w3.org/2000/svg" viewBox="0 0 512 512"><title>Archives</title><g id="Archives"><polygon points="91.25 404.39 91.25 427.04 390.23 427.04 416.34 427.04 416.34 240.25 232.3 240.25 183.3 167.94 91.25 167.94 91.25 194.24 91.25 219.63 91.25 404.39" style="fill:#c6d0dc"/><polygon points="429.81 182.73 404.52 150.2 339.57 150.2 361.58 182.73 288.16 182.73 239.16 110.42 147.11 110.42 147.11 136.72 147.11 138.27 120.31 138.27 120.31 164.57 120.31 189.96 120.31 374.72 120.31 397.37 419.29 397.37 445.4 397.37 445.4 369.52 446.09 369.52 472.2 369.52 472.2 182.73 429.81 182.73" style="fill:#fff"/><rect x="147.11" y="111.59" width="25.89" height="259.15" style="fill:#c6d0dc"/><rect x="343.98" y="327.48" width="89" height="23.61" style="fill:#c6d0dc"/><polygon points="360.84 183.9 328.2 139.28 258.47 139.28 287.35 183.9 360.84 183.9" style="fill:#59aee4"/><rect x="338.34" y="253.14" width="100.27" height="75.62" style="fill:#f7c648"/><rect x="338.34" y="291.71" width="100.27" height="37.29" style="fill:#db9923"/><path d="M434.8,177.9l-24.59-33.62H341l-9.06-12.38H260.17l-17.83-26.31H141.11V131.9H115V403H410v18H96.93V167.94h-12V433H422V403h30.07V376.69H478.2V177.9Zm-30.68-21.62,15.81,21.62H365.58l-15.81-21.62ZM325.84,143.9l24.88,34H291.34l-23-34ZM440.09,391H127V143.9h14.11V376.69h299Zm26.11-26.31H153.11V117.59H236l49,72.31H466.2Z"/><path d="M444.62,248.67H332.34v86.09H444.62Zm-12,74.09H344.34V260.67h88.28Z"/><rect x="355.79" y="274.52" width="50.83" height="12"/><rect x="355.79" y="298" width="66.98" height="12"/></g></svg>