<svg xmlns="http://www.w3.org/2000/svg" xmlns:xlink="http://www.w3.org/1999/xlink" viewBox="0,0,256,256" width="96px" height="96px"><g fill="#ffffff" fill-rule="nonzero" stroke="none" stroke-width="1" stroke-linecap="butt" stroke-linejoin="miter" stroke-miterlimit="10" stroke-dasharray="" stroke-dashoffset="0" font-family="none" font-weight="none" font-size="none" text-anchor="none" style="mix-blend-mode: normal"><g transform="scale(8,8)"><path d="M10,4c-1.645,0 -3,1.355 -3,3v14h-3v4c0,1.645 1.355,3 3,3h14h0.03125c1.629,-0.016 2.96875,-1.367 2.96875,-3v-14h4v-4c0,-1.645 -1.355,-3 -3,-3zM10,6h12.1875c-0.113,0.316 -0.1875,0.648 -0.1875,1v18c0,0.566 -0.434,1 -1,1c-0.563,0.008 -0.992,-0.438 -1,-1l-0.03125,-4h-10.96875v-14c0,-0.566 0.434,-1 1,-1zM25,6c0.566,0 1,0.434 1,1v2h-2v-2c0,-0.566 0.434,-1 1,-1zM6,23h8h3.96875h0.03125v2v0.03125c0.004,0.344 0.0745,0.65975 0.1875,0.96875h-11.1875c-0.566,0 -1,-0.434 -1,-1z"></path></g></g></svg>