<?xml version="1.0" encoding="UTF-8"?>
<!DOCTYPE svg PUBLIC "-//W3C//DTD SVG 1.1//EN" "http://www.w3.org/Graphics/SVG/1.1/DTD/svg11.dtd">
<!-- Creator: CorelDRAW -->
<svg xmlns="http://www.w3.org/2000/svg" xml:space="preserve" width="2048px" height="2048px" style="shape-rendering:geometricPrecision; text-rendering:geometricPrecision; image-rendering:optimizeQuality; fill-rule:evenodd; clip-rule:evenodd"
viewBox="0 0 2048 2048"
 xmlns:xlink="http://www.w3.org/1999/xlink">
 <defs>
  <style type="text/css">
   <![CDATA[
    .fil2 {fill:none}
    .fil1 {fill:#212121}
    .fil0 {fill:#212121;fill-rule:nonzero}
   ]]>
  </style>
 </defs>
 <g id="Layer_x0020_1">
  <metadata id="CorelCorpID_0Corel-Layer"/>
  <path class="fil0" d="M671.999 255.998l704.001 0c44.0327,0 84.0414,17.9917 113.026,46.9748 28.9831,28.9843 46.9748,68.993 46.9748,113.026l0 95.9977c0,17.6728 -14.328,32.0008 -32.0008,32.0008l-16.0618 0 0 960 16.0618 0c17.6728,0 32.0008,14.328 32.0008,32.0008l0 96.0024c0,44.0327 -17.9917,84.0414 -46.9748,113.026 -28.9843,28.9831 -68.993,46.9748 -113.026,46.9748l-704.001 0c-44.0327,0 -84.0414,-17.9917 -113.026,-46.9748 -28.9831,-28.9843 -46.9748,-68.993 -46.9748,-113.026l0 -96.0024c0,-17.6728 14.328,-32.0008 32.0008,-32.0008l16.0606 0 0 -960 -16.0606 0c-17.6728,0 -32.0008,-14.328 -32.0008,-32.0008l0 -95.9977c0,-44.0327 17.9917,-84.0414 46.9748,-113.026 28.9843,-28.9831 68.993,-46.9748 113.026,-46.9748zm704.001 64.0016l-704.001 0c-26.3669,0 -50.3611,10.8095 -67.7752,28.2236 -17.4142,17.4142 -28.2236,41.4083 -28.2236,67.7752l0 63.9969 16.0606 0c17.6728,0 32.0008,14.328 32.0008,32.0008l0 1024c0,17.6728 -14.328,32.0008 -32.0008,32.0008l-16.0606 0 0 64.0016c0,26.3669 10.8095,50.3611 28.2236,67.7752 17.4142,17.4142 41.4083,28.2236 67.7752,28.2236l704.001 0c26.3669,0 50.3611,-10.8095 67.7752,-28.2236 17.4142,-17.4142 28.2236,-41.4083 28.2236,-67.7752l0 -64.0016 -16.0618 0c-17.6728,0 -32.0008,-14.328 -32.0008,-32.0008l0 -1024c0,-17.6728 14.328,-32.0008 32.0008,-32.0008l16.0618 0 0 -63.9969c0,-26.3669 -10.8095,-50.3611 -28.2236,-67.7752 -17.4142,-17.4142 -41.4083,-28.2236 -67.7752,-28.2236z"/>
  <path class="fil0" d="M550.966 479.998c-17.6728,0 -32.0008,14.328 -32.0008,32.0008 0,17.6728 14.328,32.0008 32.0008,32.0008l473.801 0 472.269 0c17.6728,0 32.0008,-14.328 32.0008,-32.0008 0,-17.6728 -14.328,-32.0008 -32.0008,-32.0008l-472.269 0 -473.801 0z"/>
  <path class="fil0" d="M550.966 1504c-17.6728,0 -32.0008,14.328 -32.0008,32.0008 0,17.6728 14.328,32.0008 32.0008,32.0008l473.801 0 472.269 0c17.6728,0 32.0008,-14.328 32.0008,-32.0008 0,-17.6728 -14.328,-32.0008 -32.0008,-32.0008l-472.269 0 -473.801 0z"/>
  <path class="fil0" d="M895.999 367.998c-17.6728,0 -32.0008,14.328 -32.0008,32.0008 0,17.6728 14.328,32.0008 32.0008,32.0008l256.002 0c17.6728,0 32.0008,-14.328 32.0008,-32.0008 0,-17.6728 -14.328,-32.0008 -32.0008,-32.0008l-256.002 0z"/>
  <path class="fil0" d="M971.672 1616c-17.6728,0 -32.0008,14.328 -32.0008,32.0008 0,17.6728 14.328,32.0008 32.0008,32.0008l104.655 0c17.6728,0 32.0008,-14.328 32.0008,-32.0008 0,-17.6728 -14.328,-32.0008 -32.0008,-32.0008l-104.655 0z"/>
  <path class="fil0" d="M984.088 954.037l153.478 339.252 0.0496063 -0.022441c7.28386,16.102 0.137008,35.0622 -15.965,42.3461 -4.46575,2.01969 -9.15001,2.92796 -13.7457,2.84528l-307.905 0c-17.6728,0 -32.0008,-14.328 -32.0008,-32.0008 0,-5.3941 1.33583,-10.4764 3.69449,-14.9351l153.411 -339.105 29.1248 13.1256 -29.1555 -13.1894c7.28386,-16.102 26.2429,-23.25 42.3449,-15.9662 7.97481,3.60827 13.7528,10.0795 16.6689,17.6504zm74.8323 320.419l-104.691 -231.41 -104.689 231.41 209.38 0z"/>
  <path class="fil0" d="M1139.54 989.212l137.565 304.077 0.0496063 -0.022441c7.28386,16.102 0.137008,35.0622 -15.965,42.3461 -4.46575,2.01969 -9.15001,2.92796 -13.7457,2.84528l-138.985 0c-13.6713,0 -25.3382,-8.57363 -29.9221,-20.6374l-67.7315 -149.713 -0.0496063 0.022441c-4.22481,-9.33898 -3.5941,-19.6382 0.822048,-28.0654l68.9788 -152.473 29.1248 13.1256 -29.1555 -13.1894c7.28386,-16.102 26.2429,-23.25 42.3449,-15.9662 7.97481,3.60827 13.7528,10.0795 16.6689,17.6504zm58.9193 285.245l-88.7776 -196.236 -34.7067 76.7186 54.0697 119.517 69.4146 0z"/>
  <circle class="fil1" cx="1141.61" cy="864.699" r="51.1246"/>
  <path class="fil0" d="M803.409 709.542l441.182 0c25.8461,0 49.3217,10.5508 66.3189,27.5481 16.9973,16.9973 27.5481,40.4729 27.5481,66.3189l0 441.182c0,25.8461 -10.5508,49.3217 -27.5481,66.3189 -16.9973,16.9973 -40.4729,27.5481 -66.3189,27.5481l-441.182 0c-25.8461,0 -49.3217,-10.5508 -66.3189,-27.5481 -16.9973,-16.9973 -27.5481,-40.4729 -27.5481,-66.3189l0 -441.182c0,-25.8461 10.5508,-49.3217 27.5481,-66.3189 16.9973,-16.9973 40.4729,-27.5481 66.3189,-27.5481zm441.182 64.0016l-441.182 0c-8.18032,0 -15.6414,3.36969 -21.0685,8.79686 -5.42717,5.42717 -8.79686,12.8882 -8.79686,21.0685l0 441.182c0,8.18032 3.36969,15.6414 8.79686,21.0685 5.42717,5.42717 12.8882,8.79686 21.0685,8.79686l441.182 0c8.18032,0 15.6414,-3.36969 21.0685,-8.79686 5.42717,-5.42717 8.79686,-12.8882 8.79686,-21.0685l0 -441.182c0,-8.18032 -3.36969,-15.6414 -8.79686,-21.0685 -5.42717,-5.42717 -12.8882,-8.79686 -21.0685,-8.79686z"/>
 </g>
 <rect class="fil2" width="2048" height="2048"/>
</svg>
