<?xml version="1.0" encoding="UTF-8"?>
<!DOCTYPE svg PUBLIC "-//W3C//DTD SVG 1.1//EN" "http://www.w3.org/Graphics/SVG/1.1/DTD/svg11.dtd">
<!-- Creator: CorelDRAW -->
<svg xmlns="http://www.w3.org/2000/svg" xml:space="preserve" width="2048px" height="2048px" style="shape-rendering:geometricPrecision; text-rendering:geometricPrecision; image-rendering:optimizeQuality; fill-rule:evenodd; clip-rule:evenodd"
viewBox="0 0 2048 2048"
 xmlns:xlink="http://www.w3.org/1999/xlink">
 <defs>
  <style type="text/css">
   <![CDATA[
    .fil1 {fill:none}
    .fil0 {fill:#212121;fill-rule:nonzero}
   ]]>
  </style>
 </defs>
 <g id="Layer_x0020_1">
  <metadata id="CorelCorpID_0Corel-Layer"/>
  <path class="fil0" d="M671.999 255.998l704.001 0c44.0327,0 84.0414,17.9917 113.026,46.9748 28.9831,28.9843 46.9748,68.993 46.9748,113.026l0 95.9977c0,17.6728 -14.328,32.0008 -32.0008,32.0008l-16.0618 0 0 960 16.0618 0c17.6728,0 32.0008,14.328 32.0008,32.0008l0 96.0024c0,44.0327 -17.9917,84.0414 -46.9748,113.026 -28.9843,28.9831 -68.993,46.9748 -113.026,46.9748l-704.001 0c-44.0327,0 -84.0414,-17.9917 -113.026,-46.9748 -28.9831,-28.9843 -46.9748,-68.993 -46.9748,-113.026l0 -96.0024c0,-17.6728 14.328,-32.0008 32.0008,-32.0008l16.0606 0 0 -960 -16.0606 0c-17.6728,0 -32.0008,-14.328 -32.0008,-32.0008l0 -95.9977c0,-44.0327 17.9917,-84.0414 46.9748,-113.026 28.9843,-28.9831 68.993,-46.9748 113.026,-46.9748zm704.001 64.0016l-704.001 0c-26.3669,0 -50.3611,10.8095 -67.7752,28.2236 -17.4142,17.4142 -28.2236,41.4083 -28.2236,67.7752l0 63.9969 16.0606 0c17.6728,0 32.0008,14.328 32.0008,32.0008l0 1024c0,17.6728 -14.328,32.0008 -32.0008,32.0008l-16.0606 0 0 64.0016c0,26.3669 10.8095,50.3611 28.2236,67.7752 17.4142,17.4142 41.4083,28.2236 67.7752,28.2236l704.001 0c26.3669,0 50.3611,-10.8095 67.7752,-28.2236 17.4142,-17.4142 28.2236,-41.4083 28.2236,-67.7752l0 -64.0016 -16.0618 0c-17.6728,0 -32.0008,-14.328 -32.0008,-32.0008l0 -1024c0,-17.6728 14.328,-32.0008 32.0008,-32.0008l16.0618 0 0 -63.9969c0,-26.3669 -10.8095,-50.3611 -28.2236,-67.7752 -17.4142,-17.4142 -41.4083,-28.2236 -67.7752,-28.2236z"/>
  <path class="fil0" d="M550.966 479.998c-17.6728,0 -32.0008,14.328 -32.0008,32.0008 0,17.6728 14.328,32.0008 32.0008,32.0008l473.801 0 472.269 0c17.6728,0 32.0008,-14.328 32.0008,-32.0008 0,-17.6728 -14.328,-32.0008 -32.0008,-32.0008l-472.269 0 -473.801 0z"/>
  <path class="fil0" d="M550.966 1504c-17.6728,0 -32.0008,14.328 -32.0008,32.0008 0,17.6728 14.328,32.0008 32.0008,32.0008l473.801 0 472.269 0c17.6728,0 32.0008,-14.328 32.0008,-32.0008 0,-17.6728 -14.328,-32.0008 -32.0008,-32.0008l-472.269 0 -473.801 0z"/>
  <path class="fil0" d="M895.999 367.998c-17.6728,0 -32.0008,14.328 -32.0008,32.0008 0,17.6728 14.328,32.0008 32.0008,32.0008l256.002 0c17.6728,0 32.0008,-14.328 32.0008,-32.0008 0,-17.6728 -14.328,-32.0008 -32.0008,-32.0008l-256.002 0z"/>
  <path class="fil0" d="M971.672 1616c-17.6728,0 -32.0008,14.328 -32.0008,32.0008 0,17.6728 14.328,32.0008 32.0008,32.0008l104.655 0c17.6728,0 32.0008,-14.328 32.0008,-32.0008 0,-17.6728 -14.328,-32.0008 -32.0008,-32.0008l-104.655 0z"/>
  <path class="fil0" d="M777.142 827.427l329.143 0c20.1473,0 38.4414,8.22048 51.6839,21.4606 13.2402,13.2425 21.4606,31.5366 21.4606,51.6839l0 246.858c0,20.1473 -8.22048,38.4414 -21.4606,51.6839 -13.2425,13.2402 -31.5366,21.4606 -51.6839,21.4606l-329.143 0c-20.1473,0 -38.4414,-8.22048 -51.6839,-21.4606 -13.2402,-13.2425 -21.4606,-31.5366 -21.4606,-51.6839l0 -246.858c0,-20.1473 8.22048,-38.4414 21.4606,-51.6839 13.2425,-13.2402 31.5366,-21.4606 51.6839,-21.4606zm329.143 64.0016l-329.143 0c-2.4815,0 -4.76221,1.03819 -6.43347,2.70945 -1.67126,1.67126 -2.70945,3.95197 -2.70945,6.43347l0 246.858c0,2.4815 1.03819,4.76221 2.70945,6.43347 1.67126,1.67126 3.95197,2.70945 6.43347,2.70945l329.143 0c2.4815,0 4.76221,-1.03819 6.43347,-2.70945 1.67126,-1.67126 2.70945,-3.95197 2.70945,-6.43347l0 -246.858c0,-2.4815 -1.03819,-4.76221 -2.70945,-6.43347 -1.67126,-1.67126 -3.95197,-2.70945 -6.43347,-2.70945z"/>
  <path class="fil0" d="M1280 955.05l-100.571 27.4288 0 83.0434 100.571 27.4288 0 -137.901zm-132.572 3.12166l-8.3752 -30.75 161.705 -44.1012c3.49843,-1.31339 7.28623,-2.03268 11.2429,-2.03268 17.6728,0 32.0008,14.328 32.0008,32.0008l0 220.811c0.0555119,2.97874 -0.304725,6.01418 -1.12795,9.03308 -4.65,17.0504 -22.2425,27.1028 -39.2929,22.4528l0.034252 -0.125197 -161.74 -44.1107c-15.026,-2.62914 -26.4473,-15.7417 -26.4473,-31.5201l0 -131.042c-0.285827,-14.3185 9.13583,-27.5481 23.5807,-31.4882l8.42009 30.8729z"/>
 </g>
 <rect class="fil1" width="2048" height="2048"/>
</svg>
